<mxfile host="app.diagrams.net" modified="2021-02-19T00:23:46.456Z" agent="5.0 (Windows NT 10.0; Win64; x64) AppleWebKit/537.36 (KHTML, like Gecko) Chrome/88.0.4324.150 Safari/537.36" etag="8TOu5X15hyYUXrsfkkyb" version="14.4.2" type="github">
  <diagram id="MCrErEPo9ilewAODCz-R" name="Page-1">
    <mxGraphModel dx="1849" dy="1638" grid="1" gridSize="10" guides="1" tooltips="1" connect="1" arrows="1" fold="1" page="1" pageScale="1" pageWidth="827" pageHeight="1169" math="0" shadow="0">
      <root>
        <mxCell id="0" />
        <mxCell id="1" parent="0" />
        <mxCell id="4mogOLO7gWN9tjYVBM8P-2" value="" style="endArrow=none;html=1;sketch=1;strokeWidth=2" parent="1" edge="1">
          <mxGeometry width="50" height="50" relative="1" as="geometry">
            <mxPoint as="sourcePoint" />
            <mxPoint x="800" as="targetPoint" />
          </mxGeometry>
        </mxCell>
        <mxCell id="4mogOLO7gWN9tjYVBM8P-3" value="" style="endArrow=none;html=1;sketch=1;strokeWidth=2" parent="1" edge="1">
          <mxGeometry width="50" height="50" relative="1" as="geometry">
            <mxPoint as="sourcePoint" />
            <mxPoint y="450" as="targetPoint" />
          </mxGeometry>
        </mxCell>
        <mxCell id="4mogOLO7gWN9tjYVBM8P-4" value="" style="endArrow=none;html=1;sketch=1;strokeWidth=2" parent="1" edge="1">
          <mxGeometry width="50" height="50" relative="1" as="geometry">
            <mxPoint y="450" as="sourcePoint" />
            <mxPoint x="800" y="450" as="targetPoint" />
          </mxGeometry>
        </mxCell>
        <mxCell id="4mogOLO7gWN9tjYVBM8P-5" value="" style="endArrow=none;html=1;sketch=1;strokeWidth=2" parent="1" edge="1">
          <mxGeometry width="50" height="50" relative="1" as="geometry">
            <mxPoint x="800" as="sourcePoint" />
            <mxPoint x="800" y="450" as="targetPoint" />
          </mxGeometry>
        </mxCell>
        <mxCell id="GuQGx1tjLfm4qj2VWrpc-22" value="" style="verticalLabelPosition=bottom;verticalAlign=top;html=1;shape=mxgraph.flowchart.on-page_reference;sketch=1;strokeWidth=2;strokeColor=#0014CD;fillColor=#0014CD;hachureGap=1" parent="1" vertex="1">
          <mxGeometry x="60" y="60" width="40" height="40" as="geometry" />
        </mxCell>
        <mxCell id="GuQGx1tjLfm4qj2VWrpc-30" value="" style="whiteSpace=wrap;html=1;strokeWidth=2;fillWeight=4;hachureGap=0;hachureAngle=45;fillColor=#F2F2F2;sketch=1;rotation=-180;" parent="1" vertex="1">
          <mxGeometry x="160" y="120" width="462" height="240" as="geometry" />
        </mxCell>
        <mxCell id="GuQGx1tjLfm4qj2VWrpc-34" value="" style="endArrow=none;html=1;sketch=1;strokeWidth=1;exitX=1;exitY=0.5;exitDx=0;exitDy=0;exitPerimeter=0;entryX=0;entryY=0.5;entryDx=0;entryDy=0;entryPerimeter=0;" parent="1" edge="1" target="gzpXgcCL4kZ78T3dxOcv-4" source="gzpXgcCL4kZ78T3dxOcv-3">
          <mxGeometry width="50" height="50" relative="1" as="geometry">
            <mxPoint x="72" y="301" as="sourcePoint" />
            <mxPoint x="742" y="301" as="targetPoint" />
          </mxGeometry>
        </mxCell>
        <mxCell id="GuQGx1tjLfm4qj2VWrpc-42" value="" style="endArrow=none;html=1;sketch=1;strokeWidth=1;exitX=1;exitY=0.5;exitDx=0;exitDy=0;exitPerimeter=0;entryX=0;entryY=0.5;entryDx=0;entryDy=0;entryPerimeter=0;" parent="1" edge="1" target="gzpXgcCL4kZ78T3dxOcv-5" source="gzpXgcCL4kZ78T3dxOcv-4">
          <mxGeometry width="50" height="50" relative="1" as="geometry">
            <mxPoint x="72" y="381" as="sourcePoint" />
            <mxPoint x="742" y="381" as="targetPoint" />
          </mxGeometry>
        </mxCell>
        <mxCell id="gzpXgcCL4kZ78T3dxOcv-3" value="" style="verticalLabelPosition=bottom;verticalAlign=top;html=1;shape=mxgraph.flowchart.on-page_reference;sketch=1;strokeWidth=2;strokeColor=#0014CD;fillColor=#0014CD;hachureGap=1" vertex="1" parent="1">
          <mxGeometry x="190" y="60" width="40" height="40" as="geometry" />
        </mxCell>
        <mxCell id="gzpXgcCL4kZ78T3dxOcv-4" value="" style="verticalLabelPosition=bottom;verticalAlign=top;html=1;shape=mxgraph.flowchart.on-page_reference;sketch=1;strokeWidth=2;strokeColor=#0014CD;fillColor=#0014CD;hachureGap=1" vertex="1" parent="1">
          <mxGeometry x="314" y="60" width="40" height="40" as="geometry" />
        </mxCell>
        <mxCell id="gzpXgcCL4kZ78T3dxOcv-5" value="" style="verticalLabelPosition=bottom;verticalAlign=top;html=1;shape=mxgraph.flowchart.on-page_reference;sketch=1;strokeWidth=2;strokeColor=#0014CD;fillColor=#0014CD;hachureGap=1" vertex="1" parent="1">
          <mxGeometry x="440" y="60" width="40" height="40" as="geometry" />
        </mxCell>
        <mxCell id="gzpXgcCL4kZ78T3dxOcv-6" value="" style="verticalLabelPosition=bottom;verticalAlign=top;html=1;shape=mxgraph.flowchart.on-page_reference;sketch=1;strokeWidth=2;strokeColor=#0014CD;fillColor=#0014CD;hachureGap=1" vertex="1" parent="1">
          <mxGeometry x="570" y="60" width="40" height="40" as="geometry" />
        </mxCell>
        <mxCell id="gzpXgcCL4kZ78T3dxOcv-7" value="" style="verticalLabelPosition=bottom;verticalAlign=top;html=1;shape=mxgraph.flowchart.on-page_reference;sketch=1;strokeWidth=2;strokeColor=#A3A3A5;fillColor=#A3A3A5;hachureGap=1" vertex="1" parent="1">
          <mxGeometry x="704" y="60" width="40" height="40" as="geometry" />
        </mxCell>
        <mxCell id="gzpXgcCL4kZ78T3dxOcv-9" value="" style="endArrow=none;html=1;sketch=1;strokeWidth=1;exitX=1;exitY=0.5;exitDx=0;exitDy=0;exitPerimeter=0;entryX=0;entryY=0.5;entryDx=0;entryDy=0;entryPerimeter=0;" edge="1" parent="1" source="GuQGx1tjLfm4qj2VWrpc-22" target="gzpXgcCL4kZ78T3dxOcv-3">
          <mxGeometry width="50" height="50" relative="1" as="geometry">
            <mxPoint x="82" y="311" as="sourcePoint" />
            <mxPoint x="752" y="311" as="targetPoint" />
          </mxGeometry>
        </mxCell>
        <mxCell id="gzpXgcCL4kZ78T3dxOcv-10" value="" style="endArrow=none;html=1;sketch=1;strokeWidth=1;exitX=1;exitY=0.5;exitDx=0;exitDy=0;exitPerimeter=0;entryX=0;entryY=0.5;entryDx=0;entryDy=0;entryPerimeter=0;" edge="1" parent="1" source="gzpXgcCL4kZ78T3dxOcv-5" target="gzpXgcCL4kZ78T3dxOcv-6">
          <mxGeometry width="50" height="50" relative="1" as="geometry">
            <mxPoint x="364" y="90" as="sourcePoint" />
            <mxPoint x="450" y="90" as="targetPoint" />
          </mxGeometry>
        </mxCell>
        <mxCell id="gzpXgcCL4kZ78T3dxOcv-11" value="" style="endArrow=none;html=1;sketch=1;strokeWidth=1;entryX=0;entryY=0.5;entryDx=0;entryDy=0;entryPerimeter=0;" edge="1" parent="1" target="gzpXgcCL4kZ78T3dxOcv-7">
          <mxGeometry width="50" height="50" relative="1" as="geometry">
            <mxPoint x="610" y="80" as="sourcePoint" />
            <mxPoint x="460" y="100" as="targetPoint" />
          </mxGeometry>
        </mxCell>
        <mxCell id="gzpXgcCL4kZ78T3dxOcv-15" value="" style="rounded=1;whiteSpace=wrap;html=1;strokeWidth=2;fillWeight=4;hachureGap=0;hachureAngle=45;sketch=1;rotation=-180;strokeColor=#3DDE0C" vertex="1" parent="1">
          <mxGeometry x="542" y="380" width="80" height="30" as="geometry" />
        </mxCell>
        <mxCell id="gzpXgcCL4kZ78T3dxOcv-16" value="" style="rounded=1;whiteSpace=wrap;html=1;strokeWidth=2;fillWeight=4;hachureGap=0;hachureAngle=45;sketch=1;rotation=-180;strokeColor=#CECECE" vertex="1" parent="1">
          <mxGeometry x="460" y="380" width="66" height="30" as="geometry" />
        </mxCell>
      </root>
    </mxGraphModel>
  </diagram>
</mxfile>
